<svg xmlns="http://www.w3.org/2000/svg" viewBox="0 0 600 400">
  <rect width="600" height="400" fill="#1a1a2e"/>
  <!-- nodes -->
  <circle cx="300" cy="200" r="28" fill="#4fc3f7" opacity="0.9"/>
  <circle cx="185" cy="140" r="18" fill="#4fc3f7" opacity="0.5"/>
  <circle cx="415" cy="140" r="18" fill="#4fc3f7" opacity="0.5"/>
  <circle cx="185" cy="260" r="18" fill="#4fc3f7" opacity="0.5"/>
  <circle cx="415" cy="260" r="18" fill="#4fc3f7" opacity="0.5"/>
  <circle cx="130" cy="200" r="12" fill="#4fc3f7" opacity="0.3"/>
  <circle cx="470" cy="200" r="12" fill="#4fc3f7" opacity="0.3"/>
  <!-- edges -->
  <line x1="300" y1="200" x2="185" y2="140" stroke="#4fc3f7" stroke-width="1.5" opacity="0.35"/>
  <line x1="300" y1="200" x2="415" y2="140" stroke="#4fc3f7" stroke-width="1.5" opacity="0.35"/>
  <line x1="300" y1="200" x2="185" y2="260" stroke="#4fc3f7" stroke-width="1.5" opacity="0.35"/>
  <line x1="300" y1="200" x2="415" y2="260" stroke="#4fc3f7" stroke-width="1.5" opacity="0.35"/>
  <line x1="185" y1="140" x2="130" y2="200" stroke="#4fc3f7" stroke-width="1" opacity="0.2"/>
  <line x1="415" y1="140" x2="470" y2="200" stroke="#4fc3f7" stroke-width="1" opacity="0.2"/>
  <line x1="185" y1="260" x2="130" y2="200" stroke="#4fc3f7" stroke-width="1" opacity="0.2"/>
  <line x1="415" y1="260" x2="470" y2="200" stroke="#4fc3f7" stroke-width="1" opacity="0.2"/>
  <!-- center icon: bolt/lightning -->
  <polygon points="306,185 295,203 302,203 294,218 314,198 306,198"
           fill="#ffffff"/>
</svg>
